<?xml version="1.0" encoding="utf-8"?>
<!-- Generator: Adobe Illustrator 16.0.0, SVG Export Plug-In . SVG Version: 6.00 Build 0)  -->
<!DOCTYPE svg PUBLIC "-//W3C//DTD SVG 1.0//EN" "http://www.w3.org/TR/2001/REC-SVG-20010904/DTD/svg10.dtd">
<svg version="1.0" id="Layer_1" xmlns="http://www.w3.org/2000/svg" xmlns:xlink="http://www.w3.org/1999/xlink" x="0px" y="0px"
	 width="100px" height="100px" viewBox="0 0 100 100" enable-background="new 0 0 100 100" xml:space="preserve">
<path d="M66.667,46.666V13.333H43.333L30,53.332V60h-6.667V26.666h-6.666v46.668H10V80h13.333V66.668H30v10c0,5.52,4.479,10,10,10
	c4.346,0,8.008-2.793,9.388-6.668h15.798c2.308,3.965,6.563,6.668,11.481,6.668C84.026,86.668,90,80.691,90,73.334V46.666H66.667z
	 M48.138,19.999H60v26.667h-6.667v6.667H37.028L48.138,19.999z M40,80c-1.843,0-3.333-1.496-3.333-3.332
	c0-1.844,1.49-3.334,3.333-3.334s3.333,1.49,3.333,3.334C43.333,78.504,41.843,80,40,80z M76.667,80C72.988,80,70,77.012,70,73.334
	s2.988-6.666,6.667-6.666c3.678,0,6.666,2.988,6.666,6.666S80.345,80,76.667,80z M83.333,61.85C81.364,60.703,79.108,60,76.667,60
	c-7.36,0-13.334,5.971-13.334,13.334H49.388c-1.38-3.873-5.042-6.666-9.388-6.666c-1.175,0-2.285,0.24-3.333,0.611V60H60v-6.668
	h23.333V61.85z"/>
</svg>
