<?xml version="1.0" encoding="utf-8"?>
<!-- Generator: Adobe Illustrator 16.0.0, SVG Export Plug-In . SVG Version: 6.00 Build 0)  -->
<!DOCTYPE svg PUBLIC "-//W3C//DTD SVG 1.0//EN" "http://www.w3.org/TR/2001/REC-SVG-20010904/DTD/svg10.dtd">
<svg version="1.0" id="Layer_1" xmlns="http://www.w3.org/2000/svg" xmlns:xlink="http://www.w3.org/1999/xlink" x="0px" y="0px"
	 width="100px" height="100px" viewBox="0 0 100 100" enable-background="new 0 0 100 100" xml:space="preserve">
<path d="M83.333,46.666h-6.666c0,4.492,0.332,8.942,0.97,13.335H63.333V46.666l-10-26.667h-30v6.667H30v20h-6.667v-10h-6.666v10H10
	v26.668h7.278c1.377,3.874,5.039,6.667,9.389,6.667c4.346,0,8.008-2.793,9.388-6.667h14.558c1.38,3.874,5.042,6.667,9.388,6.667
	c5.521,0,10-4.479,10-10c0-1.179-0.241-2.285-0.612-3.333h9.473c1,4.518,2.321,8.971,3.991,13.333H90
	C85.723,69.74,83.333,58.484,83.333,46.666z M26.667,73.334c-1.843,0-3.334-1.49-3.334-3.333s1.491-3.333,3.334-3.333
	c1.842,0,3.333,1.49,3.333,3.333S28.509,73.334,26.667,73.334z M30,60.613c-1.048-0.371-2.161-0.612-3.333-0.612
	c-4.35,0-8.008,2.793-9.389,6.667h-0.611V53.333H30V60.613z M36.667,26.666h12.044l7.5,20H36.667V26.666z M50.612,66.668H36.667
	V53.333h20v7.28C53.841,61.615,51.618,63.842,50.612,66.668z M60,73.334c-1.843,0-3.333-1.49-3.333-3.333s1.49-3.333,3.333-3.333
	s3.333,1.49,3.333,3.333S61.843,73.334,60,73.334z"/>
</svg>
