<?xml version="1.0" encoding="utf-8"?>
<!-- Generator: Adobe Illustrator 16.0.0, SVG Export Plug-In . SVG Version: 6.00 Build 0)  -->
<!DOCTYPE svg PUBLIC "-//W3C//DTD SVG 1.0//EN" "http://www.w3.org/TR/2001/REC-SVG-20010904/DTD/svg10.dtd">
<svg version="1.0" id="Layer_1" xmlns="http://www.w3.org/2000/svg" xmlns:xlink="http://www.w3.org/1999/xlink" x="0px" y="0px"
	 width="100px" height="100px" viewBox="0 0 100 100" enable-background="new 0 0 100 100" xml:space="preserve">
<path d="M90,36.666h-8.389L68.623,15.022C66.895,12.034,63.698,9.999,60,9.999c-3.701,0-6.895,2.035-8.623,5.02L38.389,36.666
	h-6.097l-3.998-13.333H10v6.666h13.333l10,33.335v26.667H40l12.344-18.522l17.747,7.611C70.065,79.389,70,79.688,70,80.001
	c0,5.521,4.479,10,10,10s10-4.479,10-10s-4.479-10-10-10c-2.803,0-5.329,1.159-7.146,3.021l-8.779-3.763L90,43.333V36.666z
	 M80,76.668c1.839,0,3.333,1.49,3.333,3.333c0,1.836-1.494,3.333-3.333,3.333s-3.333-1.497-3.333-3.333
	C76.667,78.158,78.161,76.668,80,76.668z M57.093,18.448c0.668-1.149,1.735-1.782,2.907-1.782s2.239,0.633,2.852,1.694
	l10.983,18.306H46.162L57.093,18.448z M40,77.982v-11.79l6.113,2.617L40,77.982z M57.478,66.427l-18.656-7.995l-4.527-15.099h46.279
	L57.478,66.427z"/>
</svg>
