<?xml version="1.0" encoding="utf-8"?>
<!-- Generator: Adobe Illustrator 16.0.0, SVG Export Plug-In . SVG Version: 6.00 Build 0)  -->
<!DOCTYPE svg PUBLIC "-//W3C//DTD SVG 1.0//EN" "http://www.w3.org/TR/2001/REC-SVG-20010904/DTD/svg10.dtd">
<svg version="1.0" id="Layer_1" xmlns="http://www.w3.org/2000/svg" xmlns:xlink="http://www.w3.org/1999/xlink" x="0px" y="0px"
	 width="100px" height="100px" viewBox="0 0 100 100" enable-background="new 0 0 100 100" xml:space="preserve">
<path d="M60,10L10,43.333V70l30,20l50-33.333V30L60,10z M36.667,79.766L16.666,66.433V55.788l20.001,13.333V79.766z M83.333,53.099
	l-40,26.667V69.121l40-26.667V53.099z M40,63.333L16.01,47.337L60,18.012l23.991,15.992L40,63.333z"/>
<ellipse cx="60" cy="26.667" rx="5" ry="3.333"/>
<ellipse cx="70" cy="33.333" rx="5" ry="3.334"/>
<ellipse cx="50" cy="33.333" rx="5" ry="3.334"/>
<ellipse cx="60" cy="40" rx="5" ry="3.333"/>
<ellipse cx="40" cy="40" rx="5" ry="3.333"/>
<ellipse cx="50" cy="46.667" rx="5" ry="3.333"/>
<ellipse cx="30" cy="46.667" rx="5" ry="3.333"/>
<ellipse cx="40" cy="53.333" rx="5" ry="3.334"/>
</svg>
