<?xml version="1.0" encoding="utf-8"?>
<!-- Generator: Adobe Illustrator 16.0.0, SVG Export Plug-In . SVG Version: 6.00 Build 0)  -->
<!DOCTYPE svg PUBLIC "-//W3C//DTD SVG 1.0//EN" "http://www.w3.org/TR/2001/REC-SVG-20010904/DTD/svg10.dtd">
<svg class="marker-icon" version="1.0" id="Layer_1" xmlns="http://www.w3.org/2000/svg" xmlns:xlink="http://www.w3.org/1999/xlink" x="0px" y="0px"
	 width="100px" height="100px" viewBox="0 0 100 100" enable-background="new 0 0 100 100" xml:space="preserve">
<path stroke="#FFFFFF" d="M70,18.334l-1.25,0.833L55,10L25,30v18.333l-15,10v18.334L30,90l60-40V31.667L70,18.334z M75,29.678l2.981,1.989L75,33.652
	V29.678z M54.993,18.008l7.988,5.326L45,35.319L37.019,30L54.993,18.008z M68.333,27.78v10.318l-20,13.334V41.106L68.333,27.78z
	 M31.667,34.44l10,6.666v10.326l-10-6.667V34.44z M26.667,79.766l-10-6.667V62.773l10,6.667V79.766z M22.019,58.333l8.987-5.996
	l7.985,5.326L30,63.652L22.019,58.333z M56.667,64.206l-23.334,15.56V69.44l23.334-15.554V64.206z M83.333,46.433l-20,13.333V49.446
	l20-13.333V46.433z"/>
</svg>
