<?xml version="1.0" encoding="utf-8"?>
<!-- Generator: Adobe Illustrator 16.0.0, SVG Export Plug-In . SVG Version: 6.00 Build 0)  -->
<!DOCTYPE svg PUBLIC "-//W3C//DTD SVG 1.0//EN" "http://www.w3.org/TR/2001/REC-SVG-20010904/DTD/svg10.dtd">
<svg version="1.0" id="Layer_1" xmlns="http://www.w3.org/2000/svg" xmlns:xlink="http://www.w3.org/1999/xlink" x="0px" y="0px"
	 width="100px" height="100px" viewBox="0 0 100 100" enable-background="new 0 0 100 100" xml:space="preserve">
<path d="M83.333,80v-6.668H90v-6.666H70V60h20v-6.668h-6.667V40H70V26.667H56.667V13.333H10v73.333h80V80H83.333z M76.667,46.667
	v6.666h-20v-6.666H76.667z M43.333,60h20v6.666h-20V60z M30,53.332v-6.666h20v6.666H30z M63.333,33.333V40h-20v-6.667H63.333z
	 M30,20h20v6.667H30V20z M16.667,20h6.666v6.667h-6.666V20z M16.667,33.333h20V40h-20V33.333z M16.667,46.667h6.666v6.666h-6.666
	V46.667z M16.667,60h20v6.666h-20V60z M23.333,80h-6.666v-6.668h6.666V80z M50,80H30v-6.668h20V80z M76.667,80h-20v-6.668h20V80z"/>
</svg>
