<?xml version="1.0" encoding="utf-8"?>
<!-- Generator: Adobe Illustrator 16.0.0, SVG Export Plug-In . SVG Version: 6.00 Build 0)  -->
<!DOCTYPE svg PUBLIC "-//W3C//DTD SVG 1.0//EN" "http://www.w3.org/TR/2001/REC-SVG-20010904/DTD/svg10.dtd">
<svg version="1.0" id="Layer_1" xmlns="http://www.w3.org/2000/svg" xmlns:xlink="http://www.w3.org/1999/xlink" x="0px" y="0px"
	 width="100px" height="100px" viewBox="0 0 100 100" enable-background="new 0 0 100 100" xml:space="preserve">
<path d="M68.333,80v-6.667H90v-6.666h-6.667V60H90v-6.667H68.333v-6.666H90V40h-6.667v-6.667H90v-6.666H68.333V20H90v-6.667H10V20
	h21.667v6.667H10v6.666h6.667V40H10v6.667h21.667v6.666H10V60h6.667v6.667H10v6.666h21.667V80H10v6.667h80V80H68.333z M76.667,60
	v6.667H53.333V60H76.667z M38.333,53.333v-6.666h23.334v6.666H38.333z M76.667,33.333V40H53.333v-6.667H76.667z M38.333,20h23.334
	v6.667H38.333V20z M23.333,40v-6.667h23.334V40H23.333z M23.333,66.667V60h23.334v6.667H23.333z M61.667,80H38.333v-6.667h23.334V80
	z"/>
</svg>
