<?xml version="1.0" encoding="utf-8"?>
<!-- Generator: Adobe Illustrator 16.0.0, SVG Export Plug-In . SVG Version: 6.00 Build 0)  -->
<!DOCTYPE svg PUBLIC "-//W3C//DTD SVG 1.0//EN" "http://www.w3.org/TR/2001/REC-SVG-20010904/DTD/svg10.dtd">
<svg version="1.0" id="Layer_1" xmlns="http://www.w3.org/2000/svg" xmlns:xlink="http://www.w3.org/1999/xlink" x="0px" y="0px"
	 width="100px" height="100px" viewBox="0 0 100 100" enable-background="new 0 0 100 100" xml:space="preserve">
<path d="M80.833,60V46.667h-9.166V33.333H62.5V20h-25v13.333h-9.167v13.334h-9.166V60H10v20h80V60H80.833z M74.167,53.333V60H62.5
	v-6.667H74.167z M65,40v6.667H53.333V40H65z M55.833,53.333V60H44.167v-6.667H55.833z M44.167,26.667h11.666v6.666H44.167V26.667z
	 M35,40h11.667v6.667H35V40z M25.833,53.333H37.5V60H25.833V53.333z M28.333,73.333H16.667v-6.666h11.666V73.333z M46.667,73.333H35
	v-6.666h11.667V73.333z M65,73.333H53.333v-6.666H65V73.333z M83.333,73.333H71.667v-6.666h11.666V73.333z"/>
</svg>
