<?xml version="1.0" encoding="utf-8"?>
<!-- Generator: Adobe Illustrator 16.0.0, SVG Export Plug-In . SVG Version: 6.00 Build 0)  -->
<!DOCTYPE svg PUBLIC "-//W3C//DTD SVG 1.0//EN" "http://www.w3.org/TR/2001/REC-SVG-20010904/DTD/svg10.dtd">
<svg version="1.0" id="Layer_1" xmlns="http://www.w3.org/2000/svg" xmlns:xlink="http://www.w3.org/1999/xlink" x="0px" y="0px"
	 width="100px" height="100px" viewBox="0 0 100 100" enable-background="new 0 0 100 100" xml:space="preserve">
<path d="M10,10v80h80V10H10z M16.667,16.666h30v11.667h-30V16.666z M65,35v11.667H35V35H65z M16.667,35h11.666v11.667H16.667V35z
	 M16.667,53.333h30V65h-30V53.333z M28.333,83.333H16.667V71.667h11.666V83.333z M65,83.333H35V71.667h30V83.333z M83.333,83.333
	H71.667V71.667h11.666V83.333z M83.333,65h-30V53.333h30V65z M83.333,46.667H71.667V35h11.666V46.667z M83.333,28.333h-30V16.666h30
	V28.333z"/>
</svg>
