<?xml version="1.0" encoding="utf-8"?>
<!-- Generator: Adobe Illustrator 16.0.0, SVG Export Plug-In . SVG Version: 6.00 Build 0)  -->
<!DOCTYPE svg PUBLIC "-//W3C//DTD SVG 1.0//EN" "http://www.w3.org/TR/2001/REC-SVG-20010904/DTD/svg10.dtd">
<svg version="1.0" id="Layer_1" xmlns="http://www.w3.org/2000/svg" xmlns:xlink="http://www.w3.org/1999/xlink" x="0px" y="0px"
	 width="100px" height="100px" viewBox="0 0 100 100" enable-background="new 0 0 100 100" xml:space="preserve">
<path d="M78.333,40v-1.667C78.333,22.686,65.647,10,50,10S21.667,22.686,21.667,38.333V40h-5v6.667h5V50
	c0,4.675,3.223,8.567,7.559,9.665c2.021,7.347,5.14,13.467,8.945,17.649L35,90h6.872l2.047-8.181
	c1.94,0.974,3.975,1.514,6.081,1.514s4.144-0.54,6.084-1.514L58.128,90H65l-3.171-12.686c3.806-4.183,6.924-10.303,8.945-17.649
	c4.336-1.098,7.559-4.99,7.559-9.665v-3.333h5V40H78.333z M28.333,38.333c0-8.34,4.743-15.582,11.667-19.202v14.202h6.667V16.95
	c1.087-0.169,2.197-0.283,3.333-0.283s2.246,0.114,3.333,0.283v16.383H60V19.131c6.924,3.62,11.667,10.862,11.667,19.202V40H28.333
	V38.333z M71.663,46.689L71.667,50c0,1.511-1.039,2.825-2.526,3.203l-3.767,0.95l-1.028,3.744
	c-3.04,11.051-8.938,18.77-14.346,18.77s-11.306-7.719-14.349-18.77l-1.029-3.744l-3.763-0.95c-1.484-0.378-2.526-1.692-2.526-3.203
	v-3.333h43.256L71.663,46.689z"/>
</svg>
