<?xml version="1.0" encoding="utf-8"?>
<!-- Generator: Adobe Illustrator 16.0.0, SVG Export Plug-In . SVG Version: 6.00 Build 0)  -->
<!DOCTYPE svg PUBLIC "-//W3C//DTD SVG 1.0//EN" "http://www.w3.org/TR/2001/REC-SVG-20010904/DTD/svg10.dtd">
<svg version="1.0" id="Layer_1" xmlns="http://www.w3.org/2000/svg" xmlns:xlink="http://www.w3.org/1999/xlink" x="0px" y="0px"
	 width="100px" height="100px" viewBox="0 0 100 100" enable-background="new 0 0 100 100" xml:space="preserve">
<path d="M87.067,12.93c-3.896-3.906-10.231-3.906-14.138-0.003L43.77,42.084l-3.535-5.892l-9.72,9.717l-7.07-11.784l-4.857,4.86
	l7.07,11.787L14.31,62.12l-2.998,6.992C10.593,70.795,10,73.676,10,75.509v2.539c0,1.832,1.062,4.395,2.356,5.689l4.311,4.311
	c2.604,2.604,6.822,2.604,9.427,0l7.07-7.07l21.214-21.215V59.76L87.07,27.067C90.977,23.165,90.977,16.83,87.067,12.93z
	 M21.38,83.334l-4.225-4.222c-0.189-0.241-0.456-0.886-0.488-1.064v-2.539c0-0.938,0.403-2.91,0.774-3.77l1.943-4.541l9.065,9.065
	L21.38,83.334z M33.164,71.55l-9.427-9.43l5.455-5.456l3.535,5.896l4.86-4.86l-3.535-5.892l4.86-4.863l7.07,11.787L33.164,71.55z
	 M82.356,22.354L50.84,53.868l-3.535-5.893l30.339-30.335c1.299-1.299,3.411-1.302,4.713,0
	C83.659,18.942,83.655,21.052,82.356,22.354z"/>
</svg>
