<?xml version="1.0" encoding="utf-8"?>
<!-- Generator: Adobe Illustrator 16.0.0, SVG Export Plug-In . SVG Version: 6.00 Build 0)  -->
<!DOCTYPE svg PUBLIC "-//W3C//DTD SVG 1.0//EN" "http://www.w3.org/TR/2001/REC-SVG-20010904/DTD/svg10.dtd">
<svg version="1.0" id="Layer_1" xmlns="http://www.w3.org/2000/svg" xmlns:xlink="http://www.w3.org/1999/xlink" x="0px" y="0px"
	 width="100px" height="100px" viewBox="0 0 100 100" enable-background="new 0 0 100 100" xml:space="preserve">
<rect x="10" y="83.333" width="80" height="6.667"/>
<path d="M86.667,46.667C86.667,26.419,70.247,10,50,10S13.333,26.419,13.333,46.667V50h10.541l2.35,3.528l-4.512,0.674
	c-2.027,0.3-2.295,1.481-0.589,2.624l8.262,5.53l-3.909,2.351c-1.758,1.055-1.557,2.246,0.455,2.649l9.753,1.95l-2.715,3.669
	c-1.221,1.644-0.573,2.666,1.438,2.269l9.756-1.931l-1.104,4.428c-0.501,1.988,0.488,2.686,2.194,1.549l8.278-5.518l0.674,4.516
	c0.296,2.024,1.478,2.291,2.62,0.589l5.534-8.265l2.347,3.912c1.055,1.758,2.246,1.553,2.649-0.459l1.95-9.752l3.669,2.715
	c1.644,1.221,2.669,0.576,2.271-1.436l-1.934-9.756l4.428,1.106c1.988,0.495,2.686-0.491,1.549-2.2L76.13,50h10.537V46.667z
	 M50,68.333c-10.127,0-18.333-8.206-18.333-18.333h6.666c0,6.445,5.222,11.667,11.667,11.667S61.667,56.445,61.667,50h6.666
	C68.333,60.127,60.127,68.333,50,68.333z M45,50h10c0,2.761-2.239,5-5,5S45,52.761,45,50z M20.183,43.333
	c1.666-14.98,14.4-26.667,29.817-26.667s28.151,11.687,29.814,26.667H20.183z"/>
</svg>
