<?xml version="1.0" encoding="utf-8"?>
<!-- Generator: Adobe Illustrator 16.0.0, SVG Export Plug-In . SVG Version: 6.00 Build 0)  -->
<!DOCTYPE svg PUBLIC "-//W3C//DTD SVG 1.0//EN" "http://www.w3.org/TR/2001/REC-SVG-20010904/DTD/svg10.dtd">
<svg version="1.0" id="Layer_1" xmlns="http://www.w3.org/2000/svg" xmlns:xlink="http://www.w3.org/1999/xlink" x="0px" y="0px"
	 width="100px" height="100px" viewBox="0 0 100 100" enable-background="new 0 0 100 100" xml:space="preserve">
<path d="M81.698,45.293l6.016-0.897c2.705-0.4,3.061-1.973,0.791-3.496l-11.021-7.38l5.215-3.128
	c2.344-1.406,2.073-2.995-0.609-3.535l-13.001-2.598l3.617-4.889c1.627-2.194,0.771-3.561-1.914-3.031l-13.008,2.575l1.475-5.902
	c0.661-2.653-0.654-3.584-2.933-2.067l-11.032,7.356l-0.895-6.016c-0.404-2.708-1.977-3.06-3.5-0.788l-7.376,11.016L30.392,17.3
	c-1.406-2.344-2.995-2.07-3.535,0.612l-2.598,13.001l-4.89-3.62c-2.197-1.627-3.561-0.768-3.027,1.92l2.572,13.008l-5.902-1.478
	c-2.652-0.664-3.584,0.657-2.066,2.93l7.356,11.035l-6.016,0.898c-2.708,0.4-3.06,1.973-0.788,3.496l11.016,7.376l-5.215,3.132
	c-2.344,1.406-2.07,2.995,0.612,3.532l13.001,2.601l-3.616,4.889c-1.631,2.194-0.771,3.559,1.917,3.031l13.008-2.575l-1.479,5.901
	c-0.664,2.653,0.658,3.581,2.93,2.067L54.707,81.7l0.898,6.016c0.4,2.701,1.973,3.06,3.496,0.787l7.379-11.019l3.129,5.215
	c1.406,2.344,2.994,2.07,3.531-0.612l2.602-13.001l4.889,3.62c2.194,1.628,3.558,0.769,3.03-1.917l-2.574-13.005l5.901,1.475
	c2.653,0.661,3.581-0.654,2.067-2.933L81.698,45.293z M50,76.667C35.273,76.667,23.334,64.73,23.334,50
	c0-14.726,11.939-26.666,26.666-26.666S76.666,35.274,76.666,50C76.666,64.73,64.727,76.667,50,76.667z"/>
<path d="M50,30.001c-11.041,0-19.999,8.951-19.999,19.999c0,11.048,8.958,20,19.999,20c11.045,0,20-8.952,20-20
	C70,38.953,61.045,30.001,50,30.001z M50,63.334c-7.359,0-13.333-5.97-13.333-13.333c0-7.359,5.974-13.333,13.333-13.333
	c7.363,0,13.333,5.974,13.333,13.333C63.333,57.364,57.363,63.334,50,63.334z"/>
<path d="M56.667,50c0,3.682-2.985,6.667-6.667,6.667c-3.678,0-6.666-2.985-6.666-6.667c0-3.678,2.988-6.666,6.666-6.666
	C53.682,43.334,56.667,46.323,56.667,50z"/>
</svg>
