<?xml version="1.0" encoding="utf-8"?>
<!-- Generator: Adobe Illustrator 16.0.0, SVG Export Plug-In . SVG Version: 6.00 Build 0)  -->
<!DOCTYPE svg PUBLIC "-//W3C//DTD SVG 1.0//EN" "http://www.w3.org/TR/2001/REC-SVG-20010904/DTD/svg10.dtd">
<svg version="1.0" id="Layer_1" xmlns="http://www.w3.org/2000/svg" xmlns:xlink="http://www.w3.org/1999/xlink" x="0px" y="0px"
	 width="100px" height="100px" viewBox="0 0 100 100" enable-background="new 0 0 100 100" xml:space="preserve">
<path d="M30,83.334v-10c0-1.543-0.378-2.981-1.003-4.29l5.625-5.618c5.131,4.107,11.628,6.575,18.711,6.575
	c16.572,0,30-13.433,30-30.002c0-7.081-2.467-13.58-6.572-18.712l6.572-6.572l-4.717-4.716l-6.572,6.572
	c-5.13-4.103-11.627-6.572-18.711-6.572c-16.568,0-30,13.433-30,30c0,7.084,2.468,13.581,6.576,18.713l-5.625,5.618
	c-1.303-0.618-2.744-0.996-4.284-0.996c-5.521,0-10,4.479-10,10v16.667h80v-6.667H30z M53.333,36.666
	c1.84,0,3.334,1.492,3.334,3.333s-1.494,3.334-3.334,3.334c-1.842,0-3.333-1.493-3.333-3.334S51.491,36.666,53.333,36.666z
	 M49.046,49c1.306,0.622,2.744,0.999,4.287,0.999c5.521,0,10-4.477,10-10c0-1.541-0.377-2.983-0.999-4.287l9.668-9.668
	c6.846,9.14,6.143,22.145-2.168,30.456c-8.313,8.313-21.318,9.016-30.456,2.166L49.046,49z M23.333,83.334h-6.666v-10
	c0-1.842,1.497-3.333,3.333-3.333s3.333,1.491,3.333,3.333V83.334z"/>
</svg>
