<?xml version="1.0" encoding="utf-8"?>
<!-- Generator: Adobe Illustrator 16.0.0, SVG Export Plug-In . SVG Version: 6.00 Build 0)  -->
<!DOCTYPE svg PUBLIC "-//W3C//DTD SVG 1.0//EN" "http://www.w3.org/TR/2001/REC-SVG-20010904/DTD/svg10.dtd">
<svg version="1.0" id="Layer_1" xmlns="http://www.w3.org/2000/svg" xmlns:xlink="http://www.w3.org/1999/xlink" x="0px" y="0px"
	 width="100px" height="100px" viewBox="0 0 100 100" enable-background="new 0 0 100 100" xml:space="preserve">
<path d="M90,16.666V9.999H70v6.667h6.667v46.668H70v16.667c0,5.521,4.479,10,10,10s10-4.479,10-10V63.334h-6.667V16.666H90z
	 M83.333,80.001c0,1.836-1.494,3.333-3.333,3.333s-3.333-1.497-3.333-3.333v-10h6.666V80.001z"/>
<path d="M63.333,36.668v-6.667H40V16.666H10v20.002h11.667v6.667H10v19.999h11.667v6.667H10v20h53.333v-20H51.667v-6.667h11.666
	V43.335H51.667v-6.667H63.333z M45,36.668v6.667H28.333v-6.667H45z M16.667,30.001v-6.668h16.666v6.668H16.667z M16.667,56.668
	v-6.667h16.666v6.667H16.667z M45,63.334v6.667H28.333v-6.667H45z M33.333,83.334H16.667v-6.666h16.666V83.334z M56.667,76.668
	v6.666H40v-6.666H56.667z M56.667,50.001v6.667H40v-6.667H56.667z"/>
</svg>
