<?xml version="1.0" encoding="utf-8"?>
<!-- Generator: Adobe Illustrator 16.0.0, SVG Export Plug-In . SVG Version: 6.00 Build 0)  -->
<!DOCTYPE svg PUBLIC "-//W3C//DTD SVG 1.0//EN" "http://www.w3.org/TR/2001/REC-SVG-20010904/DTD/svg10.dtd">
<svg version="1.0" id="Layer_1" xmlns="http://www.w3.org/2000/svg" xmlns:xlink="http://www.w3.org/1999/xlink" x="0px" y="0px"
	 width="100px" height="100px" viewBox="0 0 100 100" enable-background="new 0 0 100 100" xml:space="preserve">
<path d="M61.087,50.723c1.413-2.117,2.246-4.658,2.246-7.39h-6.666c0,1.369-0.417,2.638-1.123,3.696L50,43.333l-5.547,3.696
	c-0.703-1.058-1.12-2.328-1.12-3.696c0-3.682,2.985-6.667,6.667-6.667h3.333V9.999h-6.666v20.474c-5.736,1.491-10,6.665-10,12.86
	c0,2.732,0.833,5.273,2.246,7.389L10,70.001v20h80v-20L61.087,50.723z M44.141,55.25c1.777,0.879,3.75,1.416,5.859,1.416
	s4.082-0.537,5.859-1.416l22.122,14.751H22.019L44.141,55.25z M83.333,83.333H16.667v-6.666h66.666V83.333z"/>
</svg>
