<?xml version="1.0" encoding="utf-8"?>
<!-- Generator: Adobe Illustrator 16.0.0, SVG Export Plug-In . SVG Version: 6.00 Build 0)  -->
<!DOCTYPE svg PUBLIC "-//W3C//DTD SVG 1.0//EN" "http://www.w3.org/TR/2001/REC-SVG-20010904/DTD/svg10.dtd">
<svg version="1.0" id="Layer_1" xmlns="http://www.w3.org/2000/svg" xmlns:xlink="http://www.w3.org/1999/xlink" x="0px" y="0px"
	 width="100px" height="100px" viewBox="0 0 100 100" enable-background="new 0 0 100 100" xml:space="preserve">
<path d="M90,60V46.668C90,42.987,87.019,40,83.337,40H70V16.667h-6.667v7.427L26.826,10h-10.16v40H10v20h20V50h-6.667V16.667
	l30,43.333h10v6.667h-10c-3.682,0-6.667,2.984-6.667,6.666V90h6.667V73.333H80V90h6.667V73.33c0-3.682-2.985-6.667-6.667-6.667H70
	V60H90z M70,46.667h13.333v6.667H70V46.667z M23.333,63.333h-6.667v-6.666h6.667V63.333z M63.333,53.333h-6.507L33.578,19.752
	l29.755,11.486V53.333z"/>
</svg>
