<?xml version="1.0" encoding="utf-8"?>
<!-- Generator: Adobe Illustrator 16.0.0, SVG Export Plug-In . SVG Version: 6.00 Build 0)  -->
<!DOCTYPE svg PUBLIC "-//W3C//DTD SVG 1.0//EN" "http://www.w3.org/TR/2001/REC-SVG-20010904/DTD/svg10.dtd">
<svg version="1.0" id="Layer_1" xmlns="http://www.w3.org/2000/svg" xmlns:xlink="http://www.w3.org/1999/xlink" x="0px" y="0px"
	 width="100px" height="100px" viewBox="0 0 100 100" enable-background="new 0 0 100 100" xml:space="preserve">
<path d="M70,46.666l-0.003,10c0,3.68,2.984,6.668,6.666,6.668h6.67c3.682,0,6.667-2.988,6.667-6.668V9.999H72.227L57.224,35.004
	l-3.891-11.671h-20v20H16.667C12.985,43.333,10,46.318,10,50v13.334h30v6.667H20c-5.524,0-10,4.479-10,10s4.476,10,10,10h60
	c5.521,0,10-4.479,10-10s-4.479-10-10-10H60V43.333l15.999-26.667h7.334v25.555L70,46.666z M83.333,56.666h-6.67l0.004-5.193
	l6.666-2.224V56.666z M40,29.999h8.528l4.443,13.334H40V29.999z M16.667,56.666V50h36.666v6.666H16.667z M53.333,63.334v6.667
	h-6.666v-6.667H53.333z M80,76.668c1.839,0,3.333,1.49,3.333,3.333c0,1.836-1.494,3.333-3.333,3.333H20
	c-1.839,0-3.333-1.497-3.333-3.333c0-1.843,1.494-3.333,3.333-3.333H80z"/>
</svg>
