<?xml version="1.0" encoding="utf-8"?>
<!-- Generator: Adobe Illustrator 16.0.0, SVG Export Plug-In . SVG Version: 6.00 Build 0)  -->
<!DOCTYPE svg PUBLIC "-//W3C//DTD SVG 1.0//EN" "http://www.w3.org/TR/2001/REC-SVG-20010904/DTD/svg10.dtd">
<svg version="1.0" id="Layer_1" xmlns="http://www.w3.org/2000/svg" xmlns:xlink="http://www.w3.org/1999/xlink" x="0px" y="0px"
	 width="100px" height="100px" viewBox="0 0 100 100" enable-background="new 0 0 100 100" xml:space="preserve">
<path d="M50,10c-11.045,0-20,8.955-20,20v3.333h10V90h20V33.333h10V30C70,18.955,61.045,10,50,10z M53.333,83.333h-6.666v-6.666
	h6.666V83.333z M53.333,70h-6.666v-6.667h6.666V70z M53.333,56.667h-6.666V50h6.666V56.667z M53.333,43.333h-6.666v-10h6.666V43.333
	z M37.09,26.667c1.204-4.674,4.909-8.317,9.577-9.531v4.531h6.666v-4.531c4.672,1.214,8.373,4.857,9.577,9.531H37.09z"/>
</svg>
