<?xml version="1.0" encoding="utf-8"?>
<!-- Generator: Adobe Illustrator 16.0.0, SVG Export Plug-In . SVG Version: 6.00 Build 0)  -->
<!DOCTYPE svg PUBLIC "-//W3C//DTD SVG 1.0//EN" "http://www.w3.org/TR/2001/REC-SVG-20010904/DTD/svg10.dtd">
<svg version="1.0" id="Layer_1" xmlns="http://www.w3.org/2000/svg" xmlns:xlink="http://www.w3.org/1999/xlink" x="0px" y="0px"
	 width="100px" height="100px" viewBox="0 0 100 100" enable-background="new 0 0 100 100" xml:space="preserve">
<path d="M70,13.333H30L10,36.666v26.667l20,23.334h40l20-23.334V36.666L70,13.333z M30,76.422L16.666,60.865V44.447L30,60V76.422z
	 M63.333,80H36.666V60h26.667V80z M66.934,53.332H33.066L18.783,36.666L33.066,20h33.867l14.287,16.666L66.934,53.332z
	 M83.333,60.865L70,76.422V60l13.333-15.553V60.865z"/>
<path d="M50,26.666c-11.049,0-20,4.477-20,10c0,5.525,8.951,10,20,10c11.048,0,20-4.475,20-10C70,31.142,61.048,26.666,50,26.666z
	 M50,40c-6.92,0-11.426-2.037-12.943-3.334c1.518-1.295,6.023-3.332,12.943-3.332c6.921,0,11.423,2.037,12.946,3.332
	C61.423,37.962,56.921,40,50,40z"/>
</svg>
