<?xml version="1.0" encoding="utf-8"?>
<!-- Generator: Adobe Illustrator 16.0.0, SVG Export Plug-In . SVG Version: 6.00 Build 0)  -->
<!DOCTYPE svg PUBLIC "-//W3C//DTD SVG 1.0//EN" "http://www.w3.org/TR/2001/REC-SVG-20010904/DTD/svg10.dtd">
<svg version="1.0" id="Layer_1" xmlns="http://www.w3.org/2000/svg" xmlns:xlink="http://www.w3.org/1999/xlink" x="0px" y="0px"
	 width="100px" height="100px" viewBox="0 0 100 100" enable-background="new 0 0 100 100" xml:space="preserve">
<path d="M55,10H25L10,36.667l15,26.666h30l15-26.666L55,10z M51.101,56.667H28.899l-11.25-20l11.25-20.001h22.201l11.25,20.001
	L51.101,56.667z"/>
<path d="M40,23.334c-7.363,0-13.333,5.97-13.333,13.333S32.637,50,40,50s13.333-5.97,13.333-13.333S47.363,23.334,40,23.334z
	 M40,43.333c-3.682,0-6.667-2.984-6.667-6.666S36.318,30,40,30s6.667,2.985,6.667,6.667S43.682,43.333,40,43.333z"/>
<path d="M30,70c-5.518,0-10,4.482-10,10s4.482,10,10,10s10-4.482,10-10S35.518,70,30,70z M30,83.333
	c-1.839,0-3.333-1.494-3.333-3.333s1.494-3.333,3.333-3.333s3.333,1.494,3.333,3.333S31.839,83.333,30,83.333z"/>
<path d="M84.375,10h-11.25L67.5,20l5.625,10h11.25L90,20L84.375,10z M78.75,23.334c-1.839,0-3.333-1.494-3.333-3.334
	s1.494-3.334,3.333-3.334S82.083,18.16,82.083,20S80.589,23.334,78.75,23.334z"/>
<path d="M75,60c-8.278,0-15,6.722-15,15s6.722,15,15,15s15-6.722,15-15S83.278,60,75,60z M83.333,75c0,1.071-0.221,2.09-0.589,3.03
	L71.97,67.256c0.94-0.368,1.959-0.589,3.03-0.589C79.6,66.667,83.333,70.4,83.333,75z M66.667,75c0-1.071,0.221-2.09,0.589-3.03
	L78.03,82.744c-0.94,0.368-1.959,0.589-3.03,0.589C70.4,83.333,66.667,79.6,66.667,75z"/>
</svg>
