<?xml version="1.0" encoding="utf-8"?>
<!-- Generator: Adobe Illustrator 16.0.0, SVG Export Plug-In . SVG Version: 6.00 Build 0)  -->
<!DOCTYPE svg PUBLIC "-//W3C//DTD SVG 1.0//EN" "http://www.w3.org/TR/2001/REC-SVG-20010904/DTD/svg10.dtd">
<svg version="1.0" id="Layer_1" xmlns="http://www.w3.org/2000/svg" xmlns:xlink="http://www.w3.org/1999/xlink" x="0px" y="0px"
	 width="100px" height="100px" viewBox="0 0 100 100" enable-background="new 0 0 100 100" xml:space="preserve">
<rect x="9.763" y="15.285" transform="matrix(0.7072 0.7071 -0.7071 0.7072 18.6164 -7.713)" width="17.714" height="6.665"/>
<rect x="10" y="33.334" width="10" height="6.667"/>
<rect x="33.333" y="10" width="6.667" height="10.002"/>
<path d="M87.073,72.931l-24.479-24.48l-9.428-18.854l-4.717-4.715l-4.713,4.715c-3.906-3.906-10.238-3.906-14.142,0
	c-3.906,3.903-3.906,10.234,0,14.141l-4.713,4.713l4.713,4.714l18.854,9.427l0,0L72.93,87.071c3.903,3.906,10.237,3.906,14.141,0
	C90.977,83.172,90.977,76.837,87.073,72.931z M34.31,34.311c1.303-1.302,3.412-1.302,4.714,0l-4.714,4.713
	C33.008,37.722,33.008,35.613,34.31,34.311z M47.136,54.48l-12.572-6.284l13.633-13.632l6.286,12.572L47.136,54.48z M82.359,82.352
	c-0.853,0.853-1.846,0.982-2.359,0.982c-0.515,0-1.507-0.13-2.354-0.977L53.164,57.879l4.717-4.714l24.479,24.479
	c0.847,0.846,0.974,1.842,0.974,2.356S83.206,81.505,82.359,82.352z"/>
</svg>
