<?xml version="1.0" encoding="utf-8"?>
<!-- Generator: Adobe Illustrator 16.0.0, SVG Export Plug-In . SVG Version: 6.00 Build 0)  -->
<!DOCTYPE svg PUBLIC "-//W3C//DTD SVG 1.0//EN" "http://www.w3.org/TR/2001/REC-SVG-20010904/DTD/svg10.dtd">
<svg version="1.0" id="Layer_1" xmlns="http://www.w3.org/2000/svg" xmlns:xlink="http://www.w3.org/1999/xlink" x="0px" y="0px"
	 width="100px" height="100px" viewBox="0 0 100 100" enable-background="new 0 0 100 100" xml:space="preserve">
<path d="M30,16.666V9.999H20c-5.521,0-10,4.479-10,10v60.002c0,5.521,4.479,10,10,10h70V16.666H30z M16.667,19.999
	c0-1.837,1.497-3.333,3.333-3.333h3.333v53.335H20c-1.175,0-2.285,0.241-3.333,0.612V19.999z M83.333,83.334H20
	c-1.836,0-3.333-1.497-3.333-3.333c0-1.843,1.497-3.333,3.333-3.333h10V56.666h13.333v20.002h13.334v-6.667H50V56.666h6.667v-6.667
	H30V36.666h13.333v6.667H50v-6.667h20v13.333h-6.667v6.667H70v13.335h-6.667v6.667h13.334V29.999H30v-6.666h53.333V83.334z"/>
</svg>
