<?xml version="1.0" encoding="utf-8"?>
<!-- Generator: Adobe Illustrator 16.0.0, SVG Export Plug-In . SVG Version: 6.00 Build 0)  -->
<!DOCTYPE svg PUBLIC "-//W3C//DTD SVG 1.0//EN" "http://www.w3.org/TR/2001/REC-SVG-20010904/DTD/svg10.dtd">
<svg version="1.0" id="Layer_1" xmlns="http://www.w3.org/2000/svg" xmlns:xlink="http://www.w3.org/1999/xlink" x="0px" y="0px"
	 width="100px" height="100px" viewBox="0 0 100 100" enable-background="new 0 0 100 100" xml:space="preserve">
<polygon points="50,10 50,16.667 56.667,16.667 56.667,30 63.333,30 63.333,16.667 83.333,16.667 83.333,30 90,30 90,10 "/>
<polygon points="43.333,10 10,10 10,30 16.666,30 16.666,16.667 30,16.667 30,40 36.667,40 36.667,16.667 43.333,16.667 "/>
<polygon points="83.333,36.667 83.333,46.667 63.333,46.667 63.333,36.667 56.667,36.667 56.667,53.333 83.333,53.333 
	83.333,63.333 90,63.333 90,36.667 "/>
<rect x="56.667" y="83.333" width="13.333" height="6.667"/>
<polygon points="83.333,70 83.333,83.333 76.667,83.333 76.667,90 90,90 90,70 "/>
<polygon points="16.666,83.333 16.666,36.667 10,36.667 10,90 23.334,90 23.334,83.333 "/>
<polygon points="43.333,53.333 50,53.333 50,46.667 36.667,46.667 36.667,56.667 23.334,56.667 23.334,63.333 36.667,63.333 
	36.667,83.333 30,83.333 30,90 50,90 50,83.333 43.333,83.333 "/>
</svg>
