<?xml version="1.0" encoding="utf-8"?>
<!-- Generator: Adobe Illustrator 16.0.0, SVG Export Plug-In . SVG Version: 6.00 Build 0)  -->
<!DOCTYPE svg PUBLIC "-//W3C//DTD SVG 1.0//EN" "http://www.w3.org/TR/2001/REC-SVG-20010904/DTD/svg10.dtd">
<svg version="1.0" id="Layer_1" xmlns="http://www.w3.org/2000/svg" xmlns:xlink="http://www.w3.org/1999/xlink" x="0px" y="0px"
	 width="100px" height="100px" viewBox="0 0 100 100" enable-background="new 0 0 100 100" xml:space="preserve">
<path d="M87.073,72.931L71.452,57.306l-4.717,4.721l-4.717-4.721l7.649-7.643c2.601-2.598,2.601-6.823,0-9.424L41.377,11.951
	c-2.598-2.601-6.826-2.604-9.427,0.001l-7.641,7.642L14.714,10L10,14.71l9.597,9.598l-4.714,4.713l4.71,4.717l4.717-4.714
	l28.281,28.281l-4.713,4.714l4.713,4.714l4.714-4.714l4.714,4.72l-4.711,4.707L72.93,87.071c3.906,3.906,10.241,3.906,14.138,0
	C90.977,83.172,90.977,76.837,87.073,72.931z M57.305,52.593L29.023,24.31l7.637-7.642l28.294,28.281L57.305,52.593z M80.003,83.335
	c-0.521,0-1.51-0.124-2.359-0.977L66.731,71.453l4.717-4.727l10.915,10.918c1.292,1.296,1.292,3.411-0.007,4.714
	C81.504,83.211,80.515,83.335,80.003,83.335z"/>
</svg>
