<?xml version="1.0" encoding="utf-8"?>
<!-- Generator: Adobe Illustrator 16.0.0, SVG Export Plug-In . SVG Version: 6.00 Build 0)  -->
<!DOCTYPE svg PUBLIC "-//W3C//DTD SVG 1.0//EN" "http://www.w3.org/TR/2001/REC-SVG-20010904/DTD/svg10.dtd">
<svg version="1.0" id="Layer_1" xmlns="http://www.w3.org/2000/svg" xmlns:xlink="http://www.w3.org/1999/xlink" x="0px" y="0px"
	 width="100px" height="100px" viewBox="0 0 100 100" enable-background="new 0 0 100 100" xml:space="preserve">
<path d="M89.831,53.333C89.922,52.23,90,51.124,90,50c0-1.125-0.078-2.232-0.169-3.334h-6.667c-0.215-2.161-0.645-4.258-1.25-6.275
	l6.185-2.564c-0.684-2.137-1.556-4.186-2.568-6.15l-6.165,2.553c-1.016-1.892-2.21-3.671-3.562-5.319l4.724-4.724
	c-1.438-1.699-3.015-3.276-4.714-4.714l-4.723,4.724c-1.647-1.351-3.428-2.546-5.319-3.563l2.552-6.162
	c-1.963-1.016-4.014-1.887-6.148-2.57l-2.565,6.187c-2.019-0.607-4.114-1.038-6.276-1.253v-6.665c-1.104-0.093-2.21-0.17-3.336-0.17
	c-1.123,0-2.23,0.078-3.33,0.168v6.667c-2.162,0.215-4.258,0.646-6.276,1.253l-2.565-6.188c-2.135,0.683-4.186,1.555-6.148,2.57
	l2.552,6.164c-1.892,1.017-3.669,2.212-5.322,3.561l-4.72-4.723c-1.699,1.438-3.275,3.016-4.714,4.713l4.72,4.724
	c-1.348,1.65-2.542,3.43-3.561,5.321l-6.159-2.553c-1.016,1.965-1.888,4.014-2.571,6.15l6.185,2.563
	c-0.605,2.02-1.035,4.116-1.25,6.277h-6.667C10.078,47.768,10,48.875,10,50c0,1.124,0.078,2.23,0.169,3.333h6.667
	c0.215,2.161,0.645,4.258,1.25,6.277l-6.185,2.565c0.684,2.135,1.553,4.186,2.568,6.146l6.162-2.552h0.003
	c1.019,1.895,2.21,3.672,3.562,5.318l-0.004,0.007l-4.72,4.72c1.438,1.699,3.015,3.275,4.714,4.714l4.723-4.727
	c1.65,1.354,3.428,2.546,5.319,3.562v0.006l-2.552,6.159c1.963,1.016,4.014,1.888,6.148,2.571l2.565-6.185v-0.007
	c2.019,0.612,4.114,1.042,6.276,1.257v6.667c1.1,0.091,2.207,0.169,3.33,0.169c1.126,0,2.232-0.078,3.336-0.169v-6.667
	c2.162-0.215,4.258-0.645,6.276-1.257l2.562,6.191c2.139-0.684,4.189-1.556,6.152-2.571l-2.552-6.165
	c1.892-1.016,3.669-2.207,5.319-3.562l4.723,4.727c1.699-1.438,3.275-3.015,4.714-4.714l-4.724-4.727
	c1.352-1.646,2.546-3.431,3.562-5.318h0.003l6.162,2.552c1.016-1.96,1.889-4.011,2.568-6.146l-6.188-2.565
	c0.608-2.02,1.038-4.116,1.253-6.277H89.831z M50,76.668c-14.727,0-26.667-11.947-26.667-26.668
	c0-14.729,11.94-26.667,26.667-26.667S76.667,35.271,76.667,50C76.667,64.721,64.727,76.668,50,76.668z"/>
<path d="M50.381,53.333H40l8.724-23.269C38.274,30.724,30,39.383,30,50c0,9.109,6.097,16.785,14.434,19.2L50.381,53.333z"/>
<path d="M55.569,30.802l-5.95,15.864H60l-8.724,23.27C61.722,69.271,70,60.613,70,50C70,40.889,63.899,33.216,55.569,30.802z"/>
</svg>
