<?xml version="1.0" encoding="utf-8"?>
<!-- Generator: Adobe Illustrator 16.0.0, SVG Export Plug-In . SVG Version: 6.00 Build 0)  -->
<!DOCTYPE svg PUBLIC "-//W3C//DTD SVG 1.0//EN" "http://www.w3.org/TR/2001/REC-SVG-20010904/DTD/svg10.dtd">
<svg version="1.0" id="Layer_1" xmlns="http://www.w3.org/2000/svg" xmlns:xlink="http://www.w3.org/1999/xlink" x="0px" y="0px"
	 width="100px" height="100px" viewBox="0 0 100 100" enable-background="new 0 0 100 100" xml:space="preserve">
<path d="M86.667,56.667v-0.004h-3.334v-13.33h3.334C88.509,43.333,90,41.843,90,40c0-1.839-1.491-3.333-3.333-3.333H10v5.742
	l2.917,3.431l4.153-0.938l2.497,3.431l4.134-0.943l2.5,3.431l4.157-0.931l2.506,3.431l4.147-0.938l2.52,3.438l4.153-0.938
	l2.517,3.44l4.144-0.943l2.52,3.44l4.167-0.931l2.536,3.443l27.1-0.003v0.003C88.509,63.333,90,61.843,90,60
	C90,58.161,88.509,56.667,86.667,56.667z M76.667,56.663h-6.462l-3.33-13.33h9.792V56.663z M28.984,43.333H60l3.21,12.832
	L28.984,43.333z"/>
</svg>
