<?xml version="1.0" encoding="utf-8"?>
<!-- Generator: Adobe Illustrator 16.0.0, SVG Export Plug-In . SVG Version: 6.00 Build 0)  -->
<!DOCTYPE svg PUBLIC "-//W3C//DTD SVG 1.0//EN" "http://www.w3.org/TR/2001/REC-SVG-20010904/DTD/svg10.dtd">
<svg version="1.0" id="Layer_1" xmlns="http://www.w3.org/2000/svg" xmlns:xlink="http://www.w3.org/1999/xlink" x="0px" y="0px"
	 width="100px" height="100px" viewBox="0 0 100 100" enable-background="new 0 0 100 100" xml:space="preserve">
<path d="M44.395,51.058c2.715-2.711,6.465-4.391,10.605-4.391s7.891,1.676,10.605,4.391l4.714-4.713
	c-3.92-3.919-9.336-6.344-15.319-6.344s-11.399,2.425-15.319,6.344L44.395,51.058z"/>
<path d="M55,26.667c-19.329,0-35,15.671-35,35v5l-10,3.334v3.332h80V61.667C90,42.338,74.329,26.667,55,26.667z M83.333,66.667h-5
	l-1.666-6.666h-3.334l-1.666,6.666H65l-1.667-6.666H60l-1.667,6.666h-6.666L50,60.001h-3.333L45,66.667h-6.667l-1.666-6.666h-3.334
	l-1.667,6.666h-5v-5c0-15.648,12.687-28.333,28.334-28.333s28.333,12.685,28.333,28.333V66.667z"/>
</svg>
