<?xml version="1.0" encoding="utf-8"?>
<!-- Generator: Adobe Illustrator 16.0.0, SVG Export Plug-In . SVG Version: 6.00 Build 0)  -->
<!DOCTYPE svg PUBLIC "-//W3C//DTD SVG 1.0//EN" "http://www.w3.org/TR/2001/REC-SVG-20010904/DTD/svg10.dtd">
<svg version="1.0" id="Layer_1" xmlns="http://www.w3.org/2000/svg" xmlns:xlink="http://www.w3.org/1999/xlink" x="0px" y="0px"
	 width="100px" height="100px" viewBox="0 0 100 100" enable-background="new 0 0 100 100" xml:space="preserve">
<path d="M90,14.711L75.862,10L54.951,30.906l-4.712-4.713L14.884,61.544c-6.511,6.511-6.514,17.07,0,23.574
	c6.51,6.51,17.057,6.51,23.57,0l7.067-7.07l2.356-11.784l21.213-21.214l-4.714-4.716L90,14.711z M38.455,75.691L24.311,61.551
	l7.07-7.077l10.045,10.052L39.382,74.76L38.455,75.691z M19.597,80.404l-0.006-0.006c-3.894-3.894-3.894-10.234,0.006-14.135
	l14.141,14.141C29.838,84.304,23.494,84.304,19.597,80.404z M45.522,59.193l-9.428-9.43l4.714-4.714l9.427,9.431L45.522,59.193z
	 M54.948,49.766l-9.426-9.433l4.717-4.715l9.426,9.431L54.948,49.766z"/>
</svg>
